# xmcd
#
# Track frame offsets:
#	150
#	7216
#	37602
#	55845
#	78532
#	116005
#	153507
#	172908
#	185871
#	205733
#
# Disc length: 3219 seconds
#
# Revision: 1
# Processed by: cddbd v1.5.2PL0 Copyright (c) Steve Scherf et al.
# Submitted via: audiograbber 1.83.01
#
DISCID=7d0c910a
DTITLE=Grateful Dead - 70-01-16 Springer's Inn, Portland OR
DYEAR=1900
DGENRE=
TTITLE0=Stage Announcements 2
TTITLE1=Dancing In The Streets
TTITLE2=Alligator
TTITLE3=Drums
TTITLE4=The Eleven Jam
TTITLE5=Death Don't Have No Mercy
TTITLE6=Cumberland Blues
TTITLE7=Me and My Uncle
TTITLE8=Dire Wolf
TTITLE9=Uncle John's Band
EXTD=
EXTT0=
EXTT1=
EXTT2=
EXTT3=
EXTT4=
EXTT5=
EXTT6=
EXTT7=
EXTT8=
EXTT9=
PLAYORDER=
